HIERARCHY
ROOT Hips
{
	OFFSET 0.000000 0.000000 0.000000
	CHANNELS 6 Xposition Yposition Zposition Zrotation Yrotation Xrotation 
	JOINT LHipJoint
	{
		OFFSET 0.000000 0.000000 0.000000
		CHANNELS 3 Zrotation Yrotation Xrotation
		JOINT LeftUpLeg
		{
			OFFSET 1.363060 -1.794630 0.839290
			CHANNELS 3 Zrotation Yrotation Xrotation
			JOINT LeftLeg
			{
				OFFSET 2.448110 -6.726130 0.000000
				CHANNELS 3 Zrotation Yrotation Xrotation
				JOINT LeftFoot
				{
					OFFSET 2.562200 -7.039590 0.000000
					CHANNELS 3 Zrotation Yrotation Xrotation
					JOINT LeftToeBase
					{
						OFFSET 0.157640 -0.433110 2.322550
						CHANNELS 3 Zrotation Yrotation Xrotation
						End Site
						{
							OFFSET 0.000000 0.000000 0.000000
						}
					}
				}
			}
		}
	}
	JOINT RHipJoint
	{
		OFFSET 0.000000 0.000000 0.000000
		CHANNELS 3 Zrotation Yrotation Xrotation
		JOINT RightUpLeg
		{
			OFFSET -1.305520 -1.794630 0.839290
			CHANNELS 3 Zrotation Yrotation Xrotation
			JOINT RightLeg
			{
				OFFSET -2.542530 -6.985550 0.000000
				CHANNELS 3 Zrotation Yrotation Xrotation
				JOINT RightFoot
				{
					OFFSET -2.568260 -7.056230 0.000000
					CHANNELS 3 Zrotation Yrotation Xrotation
					JOINT RightToeBase
					{
						OFFSET -0.164730 -0.452590 2.363150
						CHANNELS 3 Zrotation Yrotation Xrotation
						End Site
						{
							OFFSET 0.000000 0.000000 0.000000
						}
					}
				}
			}
		}
	}
}
MOTION
Frames: 34
Frame Time: 0.008333
4.486053 16.971421 4.772305 6.094296 32.405702 12.573351 -11.555932 5.969298 -1.139868 -4.828288 23.473992 -4.672592 -1.004310 2.144069 33.017915 0.946349 1.633546 18.410706 0.256400 0.000000 -79.426500 8.153240 -0.814695 4.968106 17.033256 3.352183 -22.315931 2.281578 3.122260 -4.491050 -3.370461 -16.670229 -10.849026 178.679200 0.000001 -4.842500
4.554120 16.975582 4.897334 5.571050 31.676187 12.201147 -11.702156 5.893252 -1.149913 -4.101037 23.581099 -5.603680 -0.858799 2.241579 35.234813 1.034484 1.255365 19.718817 0.054900 0.000000 -76.499300 8.022057 -0.918279 4.960345 17.720621 3.379000 -21.461722 2.454177 3.156581 -4.895654 -3.297186 -15.818100 -10.081500 178.691800 -0.000000 -5.857000
4.618300 16.978513 5.018755 5.067823 30.924283 11.845753 -11.825093 5.794686 -1.174651 -3.436528 23.633787 -6.555625 -0.726268 2.336454 37.449709 1.132337 1.205379 20.709990 -0.015800 -0.000000 -72.825801 7.898396 -1.004597 4.939831 18.383898 3.371110 -20.508367 2.623577 3.211594 -5.449227 -3.258049 -14.928298 -9.365562 178.784800 0.000000 -7.212700
4.678214 16.980473 5.136643 4.601068 30.154987 11.512167 -11.920158 5.677372 -1.214168 -2.851846 23.626426 -7.510004 -0.604886 2.431320 39.624402 1.238103 1.561606 21.345619 0.096000 -0.000000 -68.650500 7.789096 -1.071830 4.904819 18.999617 3.335714 -19.479856 2.779878 3.279063 -6.096064 -3.240810 -14.050524 -8.727922 178.931200 0.000000 -8.806300
4.733822 16.981796 5.251125 4.170192 29.366798 11.191026 -11.984389 5.546540 -1.263451 -2.347042 23.557126 -8.449116 -0.492535 2.526781 41.719967 1.352565 2.361982 21.619332 0.415300 0.000000 -64.358000 7.682067 -1.129922 4.835544 19.586771 3.325316 -18.775754 2.916281 3.261841 -5.952099 -3.159650 -13.206159 -8.644266 179.103600 -0.000000 -10.522100
4.785018 16.982987 5.362570 3.783032 28.563512 10.885473 -12.017466 5.405569 -1.319354 -1.927324 23.418380 -9.361836 -0.387445 2.622371 43.701576 1.477960 3.601692 21.541822 0.936501 -0.000000 -60.207500 7.583547 -1.179539 4.735182 20.131139 3.347450 -18.366818 3.028489 3.165215 -5.092143 -3.033454 -12.438086 -9.047064 179.279900 0.000000 -12.246800
4.831714 16.984493 5.471619 3.449157 27.753902 10.608825 -12.021977 5.254914 -1.380973 -1.597007 23.201552 -10.246910 -0.288582 2.716525 45.541835 1.616462 5.230827 21.131236 1.622800 0.000000 -56.343100 7.510906 -1.211725 4.628737 20.593509 3.387268 -17.905157 3.113745 3.074237 -4.314772 -2.935744 -11.801065 -9.470955 179.443700 -0.000000 -13.884600
4.874074 16.986743 5.578774 3.167048 26.941775 10.360326 -12.000204 5.096579 -1.443156 -1.348692 22.900506 -11.097979 -0.196227 2.806320 47.213302 1.769812 7.163385 20.425794 2.414500 -0.000000 -52.931100 7.464898 -1.227555 4.519730 20.974683 3.448739 -17.384738 3.173727 2.992178 -3.652655 -2.861987 -11.292826 -9.875537 179.587300 0.000001 -15.364900
4.912206 16.990072 5.684746 2.936953 26.130771 10.146430 -11.953929 4.933414 -1.499671 -1.178897 22.510013 -11.920336 -0.111975 2.889070 48.698927 1.936193 9.282563 19.454478 3.235699 0.000000 -49.886900 7.445798 -1.228512 4.415062 21.273362 3.542592 -16.812840 3.210707 2.921529 -3.126279 -2.807216 -10.903172 -10.230227 179.706400 0.000000 -16.642000
4.946331 16.994629 5.790138 2.756766 25.323527 9.969254 -11.885642 4.768410 -1.544297 -1.079180 22.027618 -12.716390 -0.037521 2.961990 49.983420 2.111342 11.459450 18.261410 4.009100 0.000000 -47.193700 7.452619 -1.217371 4.317495 21.495127 3.665898 -16.203620 3.229183 2.861758 -2.730320 -2.763463 -10.600459 -10.519378 179.801500 -0.000000 -17.694600
4.976754 17.000463 5.895504 2.624257 24.522115 9.831895 -11.797870 4.604908 -1.571073 -1.041555 21.453712 -13.491703 0.025460 3.022734 51.057781 2.287718 13.563357 16.892816 4.664800 0.000000 -44.796300 7.483839 -1.197406 4.229211 21.646056 3.812981 -15.577905 3.234053 2.810832 -2.444639 -2.722517 -10.345957 -10.739005 179.874801 0.000000 -18.522000
5.003793 17.007455 6.001279 2.536644 23.727348 9.737008 -11.693328 4.445995 -1.574887 -1.057329 20.791773 -14.253162 0.075610 3.069355 51.917724 2.455612 15.475466 15.398975 5.150200 0.000000 -42.652700 7.537326 -1.172109 4.151273 21.732896 3.975546 -14.958642 3.230066 2.765715 -2.238710 -2.677024 -10.100015 -10.895117 179.930100 -0.000000 -19.138900
5.027845 17.015387 6.107785 2.490567 22.939146 9.686526 -11.574817 4.294239 -1.552078 -1.117534 20.049300 -15.008985 0.111905 3.100579 52.565916 2.604167 17.097203 13.823932 5.433300 0.000000 -40.701500 7.610324 -1.144858 4.084672 21.762699 4.146259 -14.368420 3.221363 2.723276 -2.078778 -2.621492 -9.828220 -11.000827 179.971900 -0.000000 -19.572000
5.049371 17.023916 6.215186 2.481452 22.156102 9.680919 -11.445316 4.151100 -1.500769 -1.212713 19.236948 -15.766300 0.133638 3.115508 53.007244 2.723703 18.360556 12.213210 5.507400 0.000000 -38.929200 7.699595 -1.118505 4.029537 21.742173 4.318315 -13.824310 3.211157 2.680862 -1.933741 -2.552662 -9.505174 -11.072996 -179.994900 -0.000000 -19.854100
5.068865 17.032679 6.323498 2.503367 21.375544 9.719352 -11.307945 4.016856 -1.420845 -1.332729 18.368240 -16.531515 0.140318 3.113808 53.249979 2.806897 19.230200 10.604978 5.387900 0.000000 -37.321600 7.801224 -1.095245 3.986163 21.678957 4.488200 -13.337478 3.201810 2.636965 -1.780503 -2.469693 -9.116909 -11.129073 -179.966300 0.000000 -20.020699
5.086845 17.041325 6.432573 2.549278 20.593751 9.798976 -11.165906 3.890633 -1.313979 -1.467043 17.459680 -17.308726 0.131671 3.095608 53.303745 2.849945 19.704315 9.030387 5.107700 0.000000 -35.853200 7.910983 -1.076642 3.954692 21.580825 4.654506 -12.910744 3.194778 2.591323 -1.606980 -2.373745 -8.660792 -11.183762 -179.939000 -0.000000 -20.105600
5.103783 17.049522 6.542227 2.612675 19.806118 9.916066 -11.022122 3.770518 -1.183246 -1.606054 16.527742 -18.099257 0.107852 3.061354 53.177482 2.853485 19.814821 7.519653 4.713100 -0.000001 -34.543600 8.024872 -1.063359 3.934610 21.455180 4.817182 -12.539691 3.190715 2.544742 -1.411738 -2.267231 -8.142778 -11.247530 -179.911500 -0.000000 -20.138500
5.120180 17.057020 6.652175 2.685485 19.008037 10.064998 -10.879553 3.653730 -1.033103 -1.740125 15.590351 -18.901910 0.069483 3.011938 52.880756 2.822043 19.619121 6.092772 4.252700 -0.000001 -33.364100 8.138608 -1.055593 3.925308 21.310570 4.978117 -12.212822 3.189984 2.499203 -1.205633 -2.153253 -7.575698 -11.324270 -179.883700 -0.000000 -20.143300
5.136382 17.063638 6.762119 2.762904 18.193988 10.239973 -10.739944 3.537847 -0.867746 -1.864781 14.663787 -19.713944 0.017843 2.948273 52.423204 2.763820 19.196003 4.764692 3.772200 -0.000000 -32.297000 8.249690 -1.053274 3.926232 21.151626 5.137456 -11.916477 3.192310 2.456736 -1.003214 -2.034474 -6.972527 -11.413810 -179.856500 -0.000000 -20.135401
5.152705 17.069327 6.871807 2.839590 17.361080 10.435334 -10.604938 3.419858 -0.691667 -1.976695 13.760579 -20.531067 -0.045019 2.871360 51.814353 2.689517 18.635392 3.542295 3.308500 -0.000000 -31.298300 8.355521 -1.056073 3.936263 20.983902 5.295608 -11.634968 3.197548 2.419878 -0.825942 -1.913173 -6.346985 -11.510614 -179.831500 0.000000 -20.124400
5.169390 17.074134 6.981022 2.911173 16.504698 10.644752 -10.475781 3.297236 -0.510176 -2.072608 12.893490 -21.345617 -0.116487 2.782568 51.062184 2.610868 18.028562 2.434319 2.888899 -0.000000 -30.419900 8.454002 -1.063039 3.953514 20.812702 5.454542 -11.349634 3.205529 2.390831 -0.696541 -1.790581 -5.710540 -11.603053 -179.811100 0.000001 -20.112400
5.186544 17.078179 7.089636 2.977197 15.623981 10.863949 -10.352143 3.168728 -0.325954 -2.156737 12.067420 -22.152017 -0.193648 2.682742 50.177364 2.538919 17.457298 1.433328 2.526400 0.000000 -29.629300 8.545383 -1.073888 3.977092 20.637525 5.611988 -11.050273 3.215799 2.370811 -0.630526 -1.666785 -5.067587 -11.681726 -179.796500 -0.000000 -20.096700
5.204148 17.081641 7.197615 3.038216 14.719025 11.089147 -10.233463 3.033751 -0.141662 -2.232868 11.284732 -22.942804 -0.273749 2.572861 49.169313 2.482872 16.986482 0.528815 2.224200 0.000000 -28.919500 8.630221 -1.088015 4.005510 20.457757 5.766677 -10.728105 3.227957 2.360301 -0.639201 -1.541097 -4.419011 -11.735881 -179.789000 -0.000000 -20.071100
5.222195 17.084705 7.304988 3.094594 13.790851 11.316170 -10.119034 2.892426 0.040184 -2.303744 10.545906 -23.709401 -0.354495 2.454018 48.046944 2.448928 16.656932 -0.292298 1.978400 -0.000000 -28.306699 8.709396 -1.104714 4.036708 20.272587 5.917622 -10.375857 3.241636 2.358926 -0.728171 -1.412412 -3.763072 -11.755083 -179.789200 0.000000 -20.030200
5.240532 17.087575 7.411874 3.149490 12.843585 11.543307 -10.007463 2.745809 0.218865 -2.374402 9.846825 -24.446655 -0.434241 2.326976 46.819575 2.440243 16.485894 -1.045831 1.780200 0.000000 -27.782900 8.784874 -1.123474 4.069614 20.078201 6.064096 -9.993963 3.256087 2.365351 -0.893638 -1.279792 -3.096153 -11.733633 -179.796800 0.000000 -19.968800
5.258951 17.090405 7.518482 3.207147 11.883039 11.770165 -9.897014 2.595801 0.394954 -2.450769 9.180536 -25.151940 -0.512213 2.192335 45.496564 2.456728 16.466374 -1.748875 1.618100 0.000000 -27.295100 8.859247 -1.143929 4.103762 19.868955 6.205292 -9.588028 3.270289 2.377593 -1.124334 -1.142828 -2.414580 -11.671062 -179.810800 0.000000 -19.885200
5.277280 17.093318 7.624996 3.270272 10.916171 11.996143 -9.786482 2.444309 0.568685 -2.535814 8.541450 -25.824180 -0.588190 2.050874 44.085768 2.495353 16.571458 -2.408589 1.482300 -0.000000 -26.848600 8.934299 -1.165553 4.138471 19.641730 6.342652 -9.164381 3.283242 2.393439 -1.405404 -1.002182 -1.718595 -11.570206 -179.829799 0.000000 -19.783299
5.295295 17.096358 7.731659 3.341833 9.951912 12.221961 -9.674752 2.293589 0.741117 -2.631990 7.923089 -26.465590 -0.662507 1.903357 42.595558 2.550642 16.759605 -3.027104 1.364800 0.000000 -26.405200 9.011776 -1.187961 4.173725 19.392930 6.478069 -8.732212 3.293690 2.410670 -1.718741 -0.859679 -1.012341 -11.439268 -179.851700 0.000000 -19.672200
5.312848 17.099554 7.838628 3.423836 8.999808 12.448469 -9.561158 2.145905 0.913559 -2.741532 7.319581 -27.081646 -0.735842 1.750688 41.033634 2.615350 16.981458 -3.597374 1.261000 0.000000 -25.953300 9.092663 -1.210853 4.209715 19.120843 6.613834 -8.301560 3.300478 2.427298 -2.045127 -0.718048 -0.303841 -11.290089 -179.874600 0.000000 -19.565800
5.329837 17.102819 7.946107 3.517885 8.070635 12.677087 -9.445300 2.003578 1.087494 -2.866488 6.725444 -27.679486 -0.809135 1.593860 39.407320 2.681298 17.186758 -4.105594 1.170800 -0.000000 -25.492400 9.177631 -1.234038 4.246446 18.824763 6.750087 -7.882282 3.302564 2.441867 -2.366941 -0.580503 0.396473 -11.137592 -179.896700 0.000000 -19.481200
5.346292 17.106077 8.054215 3.621883 7.174671 12.909337 -9.328078 1.868130 1.263889 -3.005552 6.137777 -28.268629 -0.883222 1.434250 37.724844 2.740161 17.329806 -4.531027 1.097500 0.000000 -25.047100 9.265144 -1.257370 4.284361 18.509290 6.890487 -7.481978 3.299491 2.453790 -2.671313 -0.450893 1.072635 -10.995797 -179.917099 0.000000 -19.437800
5.362342 17.109157 8.162973 3.733534 6.321782 13.145561 -9.210605 1.740911 1.443693 -3.158583 5.553954 -28.857912 -0.959137 1.273228 35.994460 2.784591 17.375074 -4.855109 1.046300 0.000000 -24.634900 9.353565 -1.280915 4.322899 18.179563 7.033312 -7.105668 3.291224 2.462939 -2.948696 -0.332233 1.711398 -10.878181 -179.935000 -0.000000 -19.452300
5.378076 17.111912 8.272428 3.852070 5.521420 13.384644 -9.093655 1.623423 1.627843 -3.328316 4.969354 -29.451901 -1.037918 1.111934 34.222542 2.809067 17.301575 -5.060686 1.022500 -0.000000 -24.282600 9.442075 -1.304775 4.359618 17.840106 7.168499 -6.756078 3.278156 2.469335 -3.191773 -0.225934 2.307048 -10.796896 -179.950699 0.000000 -19.537000
5.393933 17.114098 8.382507 3.969085 4.779779 13.625678 -8.980628 1.515010 1.815859 -3.509333 4.386603 -30.058396 -1.120401 0.952078 32.421069 2.809548 17.096594 -5.139841 1.028200 0.000000 -24.025300 9.525437 -1.329260 4.393502 17.505269 7.296309 -6.430261 3.261917 2.474141 -3.402001 -0.133705 2.847800 -10.756183 -179.964600 0.000000 -19.698000
